File Name

Suck 2009 1080p BRRip H264.mp4

File Size
Format : MPEG-4
Format profile : Base Media
Codec ID : isom
File size : 3.73 GiB
Duration : 1h 30mn
Overall bit rate : 5 884 Kbps

Video
ID : 1
Format : AVC
Format/Info : Advanced Video Codec
Format profile : High@L4.1
Format settings, CABAC : Yes
Format settings, ReFrames : 3 frames
Codec ID : avc1
Codec ID/Info : Advanced Video Coding
Duration : 1h 30mn
Bit rate mode : Variable
Bit rate : 5 249 Kbps
Maximum bit rate : 21.7 Mbps
Width : 1 920 pixels
Height : 1 080 pixels
Display aspect ratio : 16:9
Frame rate mode : Constant
Frame rate : 23.976 fps
Resolution : 24 bits
Colorimetry : 4:2:0
Scan type : Progressive
Bits/(Pixel*Frame) : 0.106
Stream size : 3.33 GiB (89%)

Audio #1
ID : 2
Format : AAC
Format/Info : Advanced Audio Codec
Format version : Version 4
Format profile : LC
Format settings, SBR : No
Codec ID : 40
Duration : 1h 30mn
Bit rate mode : Variable
Bit rate : 192 Kbps
Maximum bit rate : 200 Kbps
Channel(s) : 2 channels
Channel positions : L R
Sampling rate : 48.0 KHz
Resolution : 16 bits
Stream size : 124 MiB (3%)

Audio #2
ID : 3
Format : AAC
Format/Info : Advanced Audio Codec
Format version : Version 4
Format profile : LC
Format settings, SBR : No
Codec ID : 40
Duration : 1h 30mn
Bit rate mode : Variable
Bit rate : 448 Kbps
Maximum bit rate : 467 Kbps
Channel(s) : 6 channels
Channel positions : Front: L C R, Rear: L R, LFE
Sampling rate : 48.0 KHz
Resolution : 16 bits
Stream size : 291 MiB (8%)

English SRT : External

Language : English
  http://www.imdb.com/title/tt1323605/

Release Date:
Genre: Comedy | Horror | Music

Plot: A comedy centered on a rock 'n' roll band that will do anything to become famous.

Cast:
Malcolm McDowell ... Eddie Van Helsing
Jessica Paré ... Jennifer
Nicole de Boer ... Susan
Dave Foley ... Jeff
Henry Rollins ... Rockin' Roger
Iggy Pop ... Victor
Alice Cooper ... Bartender
Mike Lobel ... Sam
Rob Stefaniuk ... Joey
Moby ... Beef
Danny Smith ... Jerry
Alex Lifeson ... Border Guard
Paul Anthony ... Tyler
Adam Wilson ... Vamp
Dimitri Coats ... Queeny
Calico Cooper ... Barmaid
Chris Ratz ... Hugo
Barbara Mamabolo ... Danielle
Carole Pope ... Club Bouncer